<svg id="logo" class="preload-inner" width="100%" height="100%" viewBox="0 0 260 100" preserveAspectRatio="xMidYMin meet" aria-labelledby="logo_title" xmlns="http://www.w3.org/2000/svg">
 <defs>
  <style>.svg-logo {
        fill: #e8638e;
        fill-rule: evenodd;
      }
      .svg-desc {
        fill: #ffffff;
        fill-rule: evenodd;
      }</style>
 </defs>
 <g>
  <title id="logo_title">My Wedding Logo</title>
  <g id="mywedding">
   <g id="svg_desc">
    <path id="svg-desc" class="svg-desc" d="m214.32399,89.350998c-0.389999,0 -0.746994,0.097 -1.071991,0.291c-0.324997,0.194 -0.628998,0.486 -0.912003,0.874001l0,5.790001l-1.496994,0l0,-8.18l1.496994,0l0,1.130997c0.638,-0.890999 1.375992,-1.335999 2.214996,-1.335999c0.199997,0 0.428009,0.023003 0.682007,0.068001l0,1.465004c-0.212997,-0.069 -0.516998,-0.103004 -0.91301,-0.103004zm-13.737991,6.026001c-0.348007,0.367996 -0.766006,0.648003 -1.253006,0.838997c-0.487,0.191002 -1.031998,0.287003 -1.634003,0.287003c-0.590988,0 -1.12999,-0.096001 -1.616989,-0.287003c-0.487,-0.190994 -0.907013,-0.467995 -1.258011,-0.830994c-0.350998,-0.362 -0.623001,-0.811005 -0.814987,-1.345001c-0.192001,-0.533005 -0.28801,-1.143005 -0.28801,-1.828003c0,-0.674004 0.095001,-1.278 0.283997,-1.811996c0.189011,-0.534004 0.457001,-0.983002 0.806,-1.349007c0.348007,-0.364998 0.766998,-0.644997 1.258011,-0.838997c0.48999,-0.194 1.03299,-0.291 1.62999,-0.291c0.608002,0 1.156998,0.097 1.647003,0.291c0.490005,0.194 0.908005,0.474998 1.253998,0.844002c0.345001,0.367996 0.611008,0.817001 0.796997,1.348999c0.186005,0.530998 0.279007,1.132996 0.279007,1.806999c0,0.679001 -0.093994,1.285004 -0.283005,1.816002c-0.188995,0.530998 -0.457993,0.979996 -0.806992,1.348999zm-0.654999,-4.536003c-0.118011,-0.393997 -0.284012,-0.722 -0.496002,-0.985001c-0.212997,-0.261993 -0.466995,-0.459 -0.762009,-0.590996c-0.294998,-0.131004 -0.619995,-0.196999 -0.973999,-0.196999c-0.360992,0 -0.687988,0.065994 -0.983994,0.196999c-0.294998,0.131996 -0.548996,0.329002 -0.762009,0.590996c-0.21199,0.263 -0.377991,0.591003 -0.495987,0.985001c-0.118011,0.394005 -0.177002,0.851006 -0.177002,1.371002c0,0.518997 0.05899,0.975998 0.177002,1.370003c0.117996,0.393997 0.283997,0.723 0.495987,0.985001c0.213013,0.262993 0.46701,0.459999 0.762009,0.590996c0.296005,0.132004 0.623001,0.196999 0.983994,0.196999c0.354004,0 0.679001,-0.064995 0.973999,-0.196999c0.295013,-0.130997 0.549011,-0.328003 0.762009,-0.590996c0.21199,-0.262001 0.377991,-0.591003 0.496002,-0.985001c0.117996,-0.394005 0.177002,-0.851006 0.177002,-1.370003c0,-0.519997 -0.059006,-0.976997 -0.177002,-1.371002zm-15.483002,5.585007c-0.449005,0 -0.805008,-0.053001 -1.067001,-0.159004c-0.263,-0.105003 -0.464005,-0.264 -0.602997,-0.474998c-0.139008,-0.210999 -0.229004,-0.473999 -0.270004,-0.788002c-0.041,-0.314003 -0.061996,-0.679001 -0.061996,-1.096001l0,-4.651001l-1.044998,0l0,-1.130997l1.044998,0l0,-2.038002l1.505997,0l0,2.038002l1.382004,0l0,1.130997l-1.382004,0l0,4.719002c0,0.286003 0.018997,0.514 0.057999,0.684998c0.037994,0.172005 0.093002,0.303001 0.162994,0.394005c0.070999,0.091995 0.157013,0.152 0.257004,0.18c0.100998,0.028999 0.216003,0.042999 0.346008,0.042999c0.136002,0 0.265991,-0.006004 0.389999,-0.016998c0.123993,-0.011002 0.244995,-0.026001 0.362991,-0.043007l0,1.096001c-0.166,0.040001 -0.337997,0.069 -0.51799,0.086006c-0.181,0.016998 -0.368011,0.026001 -0.563004,0.026001zm-13.410004,-0.951004c-0.791,0.684998 -1.783997,1.028 -2.975998,1.028c-0.408005,0 -0.785995,-0.056999 -1.134003,-0.170998c-0.348999,-0.115005 -0.653,-0.275002 -0.912994,-0.480003c-0.26001,-0.206001 -0.462997,-0.453995 -0.611008,-0.744995c-0.147995,-0.291008 -0.220993,-0.614006 -0.220993,-0.968002c0,-1.913002 1.703003,-2.869003 5.110992,-2.869003l0.744003,0c0,-0.353996 -0.011993,-0.667999 -0.035004,-0.943001c-0.024002,-0.273994 -0.098999,-0.502998 -0.225998,-0.688995c-0.126999,-0.186005 -0.330002,-0.327003 -0.606995,-0.424004c-0.278,-0.097 -0.667007,-0.145996 -1.169006,-0.145996c-1.334991,0 -2.026001,0.465996 -2.072998,1.395996l-1.514999,0c0.106003,-1.695 1.332001,-2.542999 3.675995,-2.542999c0.532013,0 1.01001,0.044998 1.435013,0.137001c0.425995,0.090996 0.786987,0.251999 1.084991,0.484001c0.298996,0.230995 0.528,0.547997 0.686996,0.949997c0.159012,0.403 0.238998,0.913002 0.238998,1.528999l0,5.285004l-1.496994,0l0,-0.831001zm0,-3.135002l-1.044998,0c-2.184998,0 -3.278,0.574005 -3.278,1.722c0,0.417 0.162994,0.736 0.487,0.959c0.324997,0.223 0.755997,0.334 1.294006,0.334c0.247986,0 0.493988,-0.027 0.738998,-0.081001c0.244995,-0.053993 0.478989,-0.132996 0.699997,-0.235992c0.222,-0.103004 0.427002,-0.228004 0.615997,-0.377007c0.188995,-0.147995 0.350998,-0.316994 0.487,-0.504997l0,-1.816002zm-20.651993,1.456001c0.138992,0.348999 0.321991,0.638 0.549988,0.870003c0.227005,0.230995 0.488007,0.403999 0.784012,0.517998c0.294998,0.113998 0.616989,0.170998 0.964996,0.170998c0.248001,0 0.496002,-0.032997 0.744003,-0.098c0.248001,-0.065994 0.470993,-0.161995 0.668991,-0.286995c0.197998,-0.125999 0.359009,-0.281006 0.483002,-0.467003c0.124008,-0.185997 0.188995,-0.398003 0.195007,-0.638l1.575989,0c-0.064987,0.421997 -0.201996,0.798004 -0.410995,1.125999c-0.210007,0.329002 -0.475998,0.604004 -0.798004,0.827003c-0.321991,0.222 -0.692001,0.391998 -1.110992,0.508995c-0.419998,0.117004 -0.869003,0.176003 -1.347,0.176003c-0.613998,0 -1.175003,-0.096001 -1.682999,-0.287003c-0.508011,-0.190994 -0.943008,-0.471001 -1.307007,-0.838997c-0.362991,-0.369003 -0.645004,-0.818001 -0.845993,-1.348999c-0.199997,-0.530998 -0.30101,-1.137001 -0.30101,-1.816002c0,-0.667999 0.098007,-1.265999 0.292007,-1.794998c0.194992,-0.528 0.466995,-0.977005 0.815002,-1.348999c0.348999,-0.371002 0.76799,-0.654999 1.257996,-0.852005c0.490005,-0.196999 1.028,-0.294998 1.613007,-0.294998c0.608002,0 1.156998,0.097 1.646988,0.291c0.490005,0.194 0.908005,0.474998 1.254013,0.844002c0.344986,0.367996 0.610992,0.817001 0.796997,1.348999c0.185989,0.530998 0.278992,1.132996 0.278992,1.806999l0,0.350998l-6.377991,0c0.034988,0.474007 0.121994,0.885002 0.261002,1.233002zm4.522995,-2.380997c-0.119003,-0.776001 -0.391998,-1.362 -0.820007,-1.756004c-0.427994,-0.393997 -0.94899,-0.590996 -1.562988,-0.590996c-0.302002,0 -0.585007,0.048996 -0.851013,0.145996c-0.265991,0.097 -0.501999,0.243004 -0.707993,0.437004c-0.207001,0.194 -0.380997,0.437996 -0.522995,0.731995c-0.141998,0.293999 -0.242004,0.638 -0.30101,1.032005l4.766006,0zm-15.253006,-2.064003c-0.389999,0 -0.746994,0.097 -1.071991,0.291c-0.324997,0.194 -0.628998,0.486 -0.912003,0.874001l0,5.790001l-1.497009,0l0,-8.18l1.497009,0l0,1.130997c0.636993,-0.890999 1.375992,-1.335999 2.214005,-1.335999c0.200989,0 0.427994,0.023003 0.681992,0.068001l0,1.465004c-0.212006,-0.069 -0.515991,-0.103004 -0.912003,-0.103004zm-17.457985,5.216003c0.211998,0.262993 0.465996,0.459999 0.761993,0.590996c0.295006,0.132004 0.623001,0.196999 0.983002,0.196999c0.236,0 0.465004,-0.030998 0.686005,-0.093994c0.222,-0.063004 0.417,-0.156006 0.584999,-0.278008c0.167999,-0.122993 0.306,-0.276993 0.411995,-0.462997c0.106003,-0.184998 0.165001,-0.403999 0.177002,-0.654999l1.550003,0c-0.058998,0.433998 -0.186005,0.815002 -0.381004,1.142998c-0.194,0.329002 -0.440994,0.604004 -0.738998,0.827003c-0.298996,0.222 -0.642998,0.389 -1.031998,0.500999c-0.389999,0.111 -0.808998,0.167 -1.258003,0.167c-0.590996,0 -1.129997,-0.096001 -1.616997,-0.287003c-0.487,-0.190994 -0.905998,-0.467995 -1.258003,-0.830994c-0.350998,-0.362 -0.623001,-0.811005 -0.814995,-1.345001c-0.192001,-0.533005 -0.288002,-1.143005 -0.288002,-1.828003c0,-0.674004 0.095001,-1.278 0.283997,-1.811996c0.189003,-0.534004 0.457001,-0.983002 0.806,-1.349007c0.348,-0.364998 0.768005,-0.644997 1.258003,-0.838997c0.489998,-0.194 1.032997,-0.291 1.629997,-0.291c0.454002,0 0.876999,0.056999 1.266998,0.170998c0.389,0.114006 0.733002,0.284004 1.032005,0.510002c0.297997,0.224998 0.542999,0.503998 0.735001,0.834999c0.192001,0.331001 0.317001,0.710999 0.375999,1.139l-1.550003,0c-0.012001,-0.245995 -0.068001,-0.462997 -0.167999,-0.651001c-0.100998,-0.188995 -0.234001,-0.346001 -0.399002,-0.470993c-0.165001,-0.126007 -0.358994,-0.221001 -0.579994,-0.287003c-0.222,-0.066002 -0.459,-0.098999 -0.713005,-0.098999c-0.360001,0 -0.687996,0.065994 -0.983002,0.196999c-0.295998,0.131996 -0.549995,0.329002 -0.761993,0.590996c-0.213005,0.263 -0.378006,0.591003 -0.496002,0.985001c-0.119003,0.394005 -0.178001,0.851006 -0.178001,1.371002c0,0.518997 0.058998,0.975998 0.178001,1.370003c0.117996,0.393997 0.282997,0.723 0.496002,0.985001zm-23.544006,-0.771004c0.139,0.348999 0.322006,0.638 0.550003,0.870003c0.226997,0.230995 0.487999,0.403999 0.783997,0.517998c0.295006,0.113998 0.617004,0.170998 0.965004,0.170998c0.248001,0 0.496002,-0.032997 0.744003,-0.098c0.247993,-0.065994 0.470993,-0.161995 0.668999,-0.286995c0.197998,-0.125999 0.359001,-0.281006 0.482994,-0.467003c0.124001,-0.185997 0.189003,-0.398003 0.195007,-0.638l1.576996,0c-0.065002,0.421997 -0.203003,0.798004 -0.412003,1.125999c-0.209999,0.329002 -0.475998,0.604004 -0.797997,0.827003c-0.320999,0.222 -0.692001,0.391998 -1.111,0.508995c-0.419998,0.117004 -0.868004,0.176003 -1.347,0.176003c-0.613998,0 -1.175003,-0.096001 -1.682999,-0.287003c-0.508003,-0.190994 -0.943001,-0.471001 -1.306999,-0.838997c-0.362999,-0.369003 -0.645004,-0.818001 -0.845001,-1.348999c-0.201004,-0.530998 -0.302002,-1.137001 -0.302002,-1.816002c0,-0.667999 0.098,-1.265999 0.292999,-1.794998c0.195,-0.528 0.466003,-0.977005 0.815002,-1.348999c0.348,-0.371002 0.766998,-0.654999 1.257996,-0.852005c0.490005,-0.196999 1.027,-0.294998 1.612007,-0.294998c0.607994,0 1.156998,0.097 1.646996,0.291c0.490997,0.194 0.907997,0.474998 1.253998,0.844002c0.345001,0.367996 0.611,0.817001 0.797005,1.348999c0.185997,0.530998 0.278999,1.132996 0.278999,1.806999l0,0.350998l-6.377998,0c0.035995,0.474007 0.123001,0.885002 0.260994,1.233002zm4.523003,-2.380997c-0.117996,-0.776001 -0.391998,-1.362 -0.82,-1.756004c-0.428001,-0.393997 -0.948997,-0.590996 -1.562996,-0.590996c-0.301003,0 -0.585007,0.048996 -0.851006,0.145996c-0.264999,0.097 -0.501999,0.243004 -0.708,0.437004c-0.207001,0.194 -0.380997,0.437996 -0.522995,0.731995c-0.142006,0.293999 -0.242004,0.638 -0.301003,1.032005l4.765999,0zm-15.634003,5.011002c-0.448997,0 -0.803993,-0.053001 -1.066994,-0.159004c-0.263,-0.105003 -0.464005,-0.264 -0.603004,-0.474998c-0.138,-0.210999 -0.228996,-0.473999 -0.269997,-0.788002c-0.041,-0.314003 -0.062004,-0.679001 -0.062004,-1.096001l0,-4.651001l-1.044998,0l0,-1.130997l1.044998,0l0,-2.038002l1.506004,0l0,2.038002l1.381996,0l0,1.130997l-1.381996,0l0,4.719002c0,0.286003 0.018997,0.514 0.057999,0.684998c0.038002,0.172005 0.093002,0.303001 0.164001,0.394005c0.070999,0.091995 0.155998,0.152 0.256996,0.18c0.099998,0.028999 0.215004,0.042999 0.345001,0.042999c0.136002,0 0.265999,-0.006004 0.389999,-0.016998c0.124001,-0.011002 0.245003,-0.026001 0.362999,-0.043007l0,1.096001c-0.165001,0.040001 -0.337997,0.069 -0.517998,0.086006c-0.18,0.016998 -0.368004,0.026001 -0.563004,0.026001zm-13.409996,-8.300003l1.497002,0l0,8.18l-1.497002,0l0,-8.18zm0,-3.125999l1.497002,0l0,1.575996l-1.497002,0l0,-1.575996zm-10.163006,10.757996c-0.292,0.234001 -0.647999,0.417 -1.067997,0.548004c-0.419003,0.130997 -0.888,0.196999 -1.408001,0.196999c-2.303001,0 -3.517002,-0.878998 -3.640999,-2.638l1.514999,0c0.006001,0.992996 0.709,1.489998 2.107998,1.489998c0.313,0 0.589001,-0.032997 0.829002,-0.098c0.238998,-0.065994 0.438,-0.156998 0.597,-0.274002c0.16,-0.116997 0.280998,-0.253998 0.363998,-0.411995c0.082001,-0.156998 0.124001,-0.329002 0.124001,-0.517998c0,-0.194 -0.031002,-0.351006 -0.093002,-0.471001c-0.061996,-0.120003 -0.182999,-0.224998 -0.363998,-0.317001c-0.18,-0.091003 -0.429001,-0.181 -0.748001,-0.270004c-0.319,-0.087997 -0.734997,-0.197998 -1.248997,-0.328995c-0.502003,-0.120003 -0.935001,-0.240005 -1.298,-0.360001c-0.363003,-0.120003 -0.661003,-0.265999 -0.895,-0.437004c-0.233002,-0.170998 -0.406002,-0.381996 -0.518002,-0.633995c-0.112,-0.250999 -0.167999,-0.568001 -0.167999,-0.950005c0,-0.336998 0.074001,-0.650002 0.221001,-0.937996c0.147999,-0.289001 0.358997,-0.538002 0.633999,-0.75c0.274002,-0.210999 0.606998,-0.376999 0.995998,-0.496002c0.390003,-0.120003 0.824001,-0.18 1.302002,-0.18c2.227001,0 3.358002,0.764999 3.393005,2.294998l-1.488007,0c-0.052998,-0.764999 -0.649998,-1.147995 -1.788998,-1.147995c-0.254002,0 -0.489002,0.024994 -0.705002,0.072998c-0.215,0.048996 -0.403,0.119003 -0.562,0.209999c-0.16,0.091003 -0.284,0.204002 -0.371998,0.337997c-0.089001,0.135002 -0.133003,0.290001 -0.133003,0.467003c0,0.160004 0.021004,0.291 0.062,0.393997c0.041,0.103004 0.140003,0.199005 0.297001,0.287003c0.156002,0.088997 0.388,0.176003 0.695,0.261002c0.306999,0.085999 0.727001,0.192001 1.257999,0.317001c0.514,0.119995 0.960003,0.243996 1.338001,0.372993c0.378002,0.128006 0.692001,0.284004 0.943005,0.467003c0.250992,0.181999 0.436996,0.404999 0.557991,0.667999c0.121002,0.262001 0.181999,0.591003 0.181999,0.985001c0,0.371002 -0.079994,0.713005 -0.238998,1.027c-0.159996,0.315002 -0.386002,0.588997 -0.677998,0.822998zm-15.690998,-0.440994c-0.319,0.378998 -0.696999,0.671997 -1.133999,0.876999c-0.437,0.206001 -0.912003,0.308998 -1.426003,0.308998c-0.460999,0 -0.882999,-0.067001 -1.266998,-0.201004c-0.383999,-0.134995 -0.735001,-0.343994 -1.054001,-0.629997l0,0.634003l-1.497002,0l0,-11.306l1.497002,0l0,4.094002c0.667,-0.782005 1.473,-1.173004 2.417999,-1.173004c0.555,0 1.049999,0.100998 1.484001,0.304001c0.433998,0.202003 0.799999,0.487999 1.098,0.856003c0.299,0.368996 0.524002,0.812996 0.678001,1.332001c0.153999,0.519997 0.23,1.095993 0.23,1.729996c0,0.663002 -0.091,1.262001 -0.274002,1.799004c-0.182999,0.536995 -0.433998,0.994995 -0.752998,1.375zm-1.081001,-5.465004c-0.360001,-0.521996 -0.862,-0.783997 -1.506001,-0.783997c-0.837997,0 -1.602997,0.468994 -2.293999,1.404999l0,3.889c0.654999,0.661995 1.398998,0.992996 2.231998,0.992996c0.644001,0 1.156002,-0.269997 1.537003,-0.808998c0.381001,-0.540001 0.570999,-1.341003 0.570999,-2.403c0,-1.004997 -0.18,-1.767998 -0.540001,-2.291zm-20.580999,3.944c0.139,0.348999 0.322002,0.638 0.549002,0.870003c0.228003,0.230995 0.489,0.403999 0.784,0.517998c0.295998,0.113998 0.617001,0.170998 0.966,0.170998c0.248001,0 0.495998,-0.032997 0.743999,-0.098c0.248001,-0.065994 0.471001,-0.161995 0.668999,-0.286995c0.198,-0.125999 0.359001,-0.281006 0.483,-0.467003c0.124002,-0.185997 0.189001,-0.398003 0.195004,-0.638l1.575994,0c-0.064995,0.421997 -0.201996,0.798004 -0.411995,1.125999c-0.209,0.329002 -0.474998,0.604004 -0.797001,0.827003c-0.322001,0.222 -0.692001,0.391998 -1.112,0.508995c-0.419003,0.117004 -0.868,0.176003 -1.346001,0.176003c-0.614002,0 -1.174999,-0.096001 -1.682999,-0.287003c-0.508003,-0.190994 -0.944,-0.471001 -1.307003,-0.838997c-0.362999,-0.369003 -0.645,-0.818001 -0.845999,-1.348999c-0.200998,-0.530998 -0.301003,-1.137001 -0.301003,-1.816002c0,-0.667999 0.097,-1.265999 0.292002,-1.794998c0.195,-0.528 0.466997,-0.977005 0.815002,-1.348999c0.348997,-0.371002 0.767998,-0.654999 1.257998,-0.852005c0.49,-0.196999 1.028002,-0.294998 1.612999,-0.294998c0.608004,0 1.157003,0.097 1.647003,0.291c0.49,0.194 0.907999,0.474998 1.254,0.844002c0.344997,0.367996 0.611,0.817001 0.796997,1.348999c0.186005,0.530998 0.279003,1.132996 0.279003,1.806999l0,0.350998l-6.378002,0c0.035,0.474007 0.122002,0.885002 0.261,1.233002zm4.521999,-2.380997c-0.117998,-0.776001 -0.390997,-1.362 -0.818998,-1.756004c-0.428001,-0.393997 -0.949001,-0.590996 -1.563002,-0.590996c-0.302,0 -0.584997,0.048996 -0.851,0.145996c-0.265997,0.097 -0.501997,0.243004 -0.708998,0.437004c-0.205999,0.194 -0.379999,0.437996 -0.521999,0.731995c-0.142002,0.293999 -0.242002,0.638 -0.301001,1.032005l4.764996,0l0.000002,0zm-18.484999,4.890999l-1.825001,-6.021004l-1.825001,6.021004l-1.453,0l-2.551,-8.18l1.683,0l1.559001,6.236l1.895999,-6.236l1.382,0l1.913,6.236l1.559,-6.236l1.638999,0l-2.533998,8.18l-1.443,0z"/>
   </g>
   <g id="svg_logo">
    <path d="m258.384003,30.273561c-0.786987,1.159 -1.548004,1.978003 -2.28598,2.458002c-0.73703,0.480999 -1.438019,0.721001 -2.10202,0.721001c-0.516006,0 -0.99501,-0.135002 -1.438004,-0.406002c-0.442001,-0.271 -0.824005,-0.628998 -1.143005,-1.072001c-0.319992,-0.444 -0.570999,-0.943001 -0.755997,-1.497c-0.184006,-0.555 -0.276001,-1.128 -0.276001,-1.719002c0,-0.467999 0.074005,-0.924 0.221008,-1.368c0.147995,-0.442999 0.300995,-0.886999 0.460999,-1.330004c0.159988,-0.443995 0.312988,-0.905998 0.460999,-1.386c0.147003,-0.481001 0.220993,-0.980001 0.220993,-1.497002c0,-2.464001 -0.541,-4.311995 -1.621994,-5.545c-1.082001,-1.232 -2.434006,-1.847999 -4.056,-1.847999c-1.990997,0 -4.087006,0.412999 -6.287003,1.237998c-2.199997,0.826 -4.356995,2.021002 -6.471008,3.586c-2.11499,1.565001 -4.123993,3.487 -6.028992,5.766001c-1.904999,2.278999 -3.583008,4.885 -5.033005,7.817995c-1.450989,2.931999 -2.599991,6.167 -3.447998,9.702c-0.847992,3.537006 -1.272003,7.337002 -1.272003,11.403c0,2.539001 0.314011,4.75 0.940002,6.635002c0.626999,1.884998 1.518005,3.456005 2.673996,4.713009c1.155014,1.256996 2.568008,2.194 4.240005,2.808998c1.671005,0.615997 3.552002,0.924004 5.641998,0.924004c3.882996,0 7.460007,-0.523003 10.729996,-1.571007c3.269012,-1.046997 6.34201,-2.518997 9.218002,-4.417c0.195999,-0.738998 0.368011,-1.447002 0.516006,-2.125004c0.147003,-0.677998 0.220993,-1.299992 0.220993,-1.867001c0,-0.739002 -0.097992,-1.324001 -0.294998,-1.755001c-0.196991,-0.431 -0.460999,-0.751999 -0.792999,-0.961998c-0.330994,-0.209 -0.724991,-0.338001 -1.179001,-0.387997c-0.455994,-0.049004 -0.940994,-0.074001 -1.457001,-0.074001c-0.93399,0 -1.750992,-0.123001 -2.451996,-0.368999c-0.701004,-0.245995 -1.296997,-0.566998 -1.787994,-0.960999c-0.492004,-0.394001 -0.861008,-0.850002 -1.10701,-1.368c-0.246002,-0.517002 -0.367996,-1.035 -0.367996,-1.552002c0,-0.517998 0.115997,-1.016998 0.350006,-1.496998c0.233002,-0.481003 0.595993,-0.906002 1.087997,-1.276001c0.490997,-0.368999 1.112,-0.671001 1.862,-0.905006c0.748993,-0.233994 1.627991,-0.350998 2.636002,-0.350998c2.384003,0 4.345001,0.245998 5.881989,0.738998c1.535004,0.493 2.740021,1.220001 3.613037,2.181c0.871979,0.961002 1.474976,2.138 1.806976,3.530003c0.332001,1.391998 0.498016,2.974998 0.498016,4.75c0,2.858009 -0.166016,5.828007 -0.498016,8.908009c-0.332001,3.080002 -0.867004,6.098999 -1.604004,9.056c-0.737976,2.957001 -1.714996,5.752998 -2.932007,8.389999c-1.215988,2.637001 -2.709991,4.952995 -4.479996,6.948997c-1.768997,1.996002 -3.841003,3.579002 -6.212997,4.75c-2.372009,1.169998 -5.082001,1.756004 -8.130005,1.756004c-0.565994,0 -1.242004,-0.037003 -2.028,-0.111c-0.787003,-0.074005 -1.610001,-0.198006 -2.470993,-0.370003c-0.860001,-0.172997 -1.714005,-0.401001 -2.562012,-0.683998c-0.847992,-0.283005 -1.603989,-0.634003 -2.26799,-1.053001c-0.664001,-0.418999 -1.205002,-0.905998 -1.622009,-1.459999c-0.418991,-0.555 -0.626999,-1.189003 -0.626999,-1.903999c0,-0.369003 0.07901,-0.856003 0.238998,-1.459999c0.160004,-0.604004 0.406006,-1.189003 0.738007,-1.756004c0.332001,-0.567001 0.749008,-1.058998 1.253998,-1.477997c0.503006,-0.418999 1.112,-0.627998 1.824997,-0.627998c0.811005,0 1.597,0.134995 2.360001,0.405998c0.761002,0.270996 1.548004,0.572998 2.360001,0.905998c0.811005,0.332001 1.659012,0.634003 2.544006,0.904999c0.884995,0.271004 1.843002,0.406998 2.875992,0.406998c1.155014,0 2.292007,-0.590996 3.411011,-1.773994c1.117996,-1.182999 2.175003,-2.723 3.17099,-4.621002c0.99501,-1.897003 1.904007,-4.023003 2.728012,-6.375999c0.82399,-2.352997 1.51799,-4.712997 2.084,-7.078003c-1.180008,1.084 -2.428009,2.112999 -3.743011,3.086006c-1.314987,0.973 -2.814987,1.823997 -4.498993,2.550995c-1.684006,0.725998 -3.606995,1.306 -5.770004,1.737c-2.164001,0.431 -4.67099,0.647003 -7.522003,0.647003c-3.319,0 -6.311996,-0.672005 -8.978989,-2.014999c-1.888,-0.951004 -3.57901,-2.140999 -5.07901,-3.562004c-0.729996,0.548004 -1.459,1.097 -2.207993,1.644005c-1.044998,0.764 -2.132996,1.447998 -3.264008,2.051994c-1.12999,0.604004 -2.309998,1.096001 -3.539001,1.478004c-1.229996,0.382996 -2.519989,0.572998 -3.871994,0.572998c-1.352005,0 -2.488998,-0.978996 -3.410995,-2.937996c-0.921005,-1.959007 -1.382004,-4.824005 -1.382004,-8.594002c0,-1.479004 0.097992,-3.074005 0.294998,-4.786999c0.195999,-1.711998 0.442001,-3.554001 0.737,-5.526001l-0.589996,0l-9.660995,19.220997c-0.492004,1.010002 -1.045013,1.700005 -1.659012,2.07c-0.61499,0.369003 -1.326996,0.554001 -2.138992,0.554001c-1.007996,0 -1.819,-0.214996 -2.432999,-0.647003c-0.542007,-0.378998 -0.96701,-0.880997 -1.289001,-1.490997c-1.139008,0.525002 -2.294006,0.979004 -3.466995,1.362c-1.586014,0.516998 -3.09201,0.776001 -4.517014,0.776001c-1.278992,0 -2.353989,-0.178001 -3.22699,-0.536003c-0.872009,-0.356995 -1.57901,-0.855995 -2.12001,-1.496994c-0.207993,-0.247002 -0.386993,-0.521004 -0.549988,-0.810005c-0.488007,0.289001 -0.962006,0.582001 -1.479004,0.866005c-0.876999,0.483002 -1.738998,0.908997 -2.587997,1.280998c-0.848999,0.372002 -1.677002,0.675003 -2.484009,0.908997c-0.807999,0.235001 -1.554001,0.351006 -2.238998,0.351006c-0.382996,0 -0.951004,-0.082001 -1.703995,-0.247002c-0.753006,-0.166 -1.574997,-0.502998 -2.464005,-1.013c-0.889999,-0.509003 -1.779999,-1.246002 -2.668991,-2.209999c-0.846008,-0.917 -1.586014,-2.123001 -2.221008,-3.612c-0.488998,0.354996 -0.977005,0.698997 -1.462006,1.031998c-0.602997,0.536003 -1.219986,1.062004 -1.862,1.567001c-1.135986,0.895996 -2.313995,1.673996 -3.531998,2.334999c-1.218002,0.661003 -2.449997,1.192001 -3.695999,1.591003c-1.246002,0.398994 -2.498993,0.598999 -3.757996,0.598999c-1.779999,0 -3.320007,-0.386002 -4.619995,-1.157005c-1.300003,-0.770996 -2.382004,-1.797997 -3.244003,-3.078995c-0.577003,-0.857002 -1.047005,-1.797005 -1.428001,-2.809006c-0.720001,0.658005 -1.458,1.302002 -2.236,1.915001c-1.136002,0.895004 -2.314003,1.673004 -3.531998,2.334c-1.218002,0.661003 -2.450005,1.192001 -3.696007,1.591003c-1.245995,0.400002 -2.497993,0.598999 -3.756996,0.598999c-1.780998,0 -3.320999,-0.385002 -4.621002,-1.156998c-1.218994,-0.722 -2.237,-1.678001 -3.070999,-2.848c-0.206001,0.084 -0.402,0.171997 -0.571999,0.271996c-1.217003,0.715004 -2.495003,1.348999 -3.834999,1.903c-1.340004,0.555 -2.728004,0.998001 -4.166,1.331001c-1.438004,0.333 -2.895004,0.499001 -4.370003,0.499001c-2.310997,0 -4.332001,-0.418999 -6.064995,-1.256996c-1.733002,-0.837006 -3.178001,-1.964005 -4.333,-3.382004c-0.349007,-0.427002 -0.662003,-0.881996 -0.958,-1.349998c-0.410004,-0.024002 -0.825005,-0.089005 -1.258003,-0.187004c-6.189003,-1.411995 -9.234001,-3.834999 -9.249001,-3.956993c-1.345001,2.494995 -2.418999,3.935997 -3.963997,5.934998c-1.546997,2 -1.764,2.004997 -3.497997,3.414001c-1.734001,1.408997 -3.549,2.494995 -5.444,3.259995c-1.895,0.764999 -3.851002,1.147003 -5.867001,1.147003c-2.555,0 -4.724998,-0.670998 -6.513,-2.012001c-1.787998,-1.342003 -3.239998,-3.166 -4.355,-5.474998c-1.116001,-2.306999 -1.929001,-5.016998 -2.439999,-8.131004c-0.511002,-3.112 -0.766003,-6.425991 -0.766003,-9.94199c0,-1.287994 0.067001,-2.495998 0.202,-3.622993c0.134003,-1.127003 0.242001,-2.133003 0.322002,-3.019001c-0.967003,6.118999 -2.184002,11.237999 -3.649002,15.356987c-1.466,4.119003 -3.185999,7.426003 -5.161999,9.921997c-1.976,2.496002 -4.233999,4.273003 -6.774,5.333c-2.541,1.060005 -5.357001,1.590004 -8.448004,1.590004c-1.775,0 -3.467999,-0.583 -5.080997,-1.750999c-1.613,-1.167 -3.032001,-2.903999 -4.255,-5.211998c-1.223,-2.308006 -2.204,-5.199005 -2.944,-8.675003c-0.739,-3.474998 -0.446,-6.648991 -0.189,-10.088985c0.174,-2.330997 0.447,-5.618999 0.604,-6.662003c0.289,-1.915001 0.863,-4.698997 1.208,-6.661995c0.53,-3.019001 1.234,-5.827003 2.115,-8.781002c2.317999,-7.775003 4.804999,-12.151007 9.967999,-20.287006c0.622001,-0.934 4.862001,-6.632 8.155001,-9.083999c2.332001,-1.736 5.096001,-3.922 5.739,-4.239999c2.806,-1.383 3.861,-1.786 3.949001,-1.822c2.403,-0.777 3.73,-0.159 3.904999,0.308c0.174999,0.47 2.217999,0.488 1.509998,2.725999c-0.550999,1.744 -4.443996,2.213 -9.968004,9.689001c-4.09,5.537999 -10.066,16.244998 -11.477999,20.591004c-3.217,9.888996 -5.226999,17.826 -5.134999,17.258999c-0.443999,2.723999 -1.168,6.487999 -1.168,8.821999c0,1.905998 0.127001,3.683998 0.382998,5.333984c0.255,1.650009 0.651,3.086006 1.190001,4.306999c0.537,1.221001 1.209,2.181 2.016001,2.878006c0.806,0.697998 1.76,1.046997 2.862999,1.046997c1.101999,0 2.171,-0.321999 3.206001,-0.966003c1.034,-0.64399 2.035999,-1.529999 3.004,-2.656998c0.968,-1.126999 1.894999,-2.469002 2.782,-4.025002c0.888,-1.556 1.741001,-3.240986 2.561003,-5.051987c0.820004,-1.810997 1.593002,-3.716999 2.319,-5.716003c0.725998,-1.999001 1.411001,-4.017998 2.056,-6.057999c2.259003,-7.191002 3.600002,-11.406002 5.348,-20.557003c0.323002,-1.476 0.706001,-2.709999 1.149002,-3.702999c0.444,-0.993 0.974998,-1.785 1.592999,-2.375c0.618,-0.59 1.337002,-1.007 2.158001,-1.248001c0.819,-0.241999 1.767002,-0.362 2.842999,-0.362c1.021,0 1.861,0.094 2.52,0.281c0.658001,0.188 1.183002,0.443001 1.573002,0.764997c0.389004,0.322002 0.665005,0.712 0.826,1.168001c0.161999,0.455999 0.242001,0.966 0.242001,1.528999c0,0.188 -0.107002,0.973 -0.322002,2.355c-0.216,1.382 -0.490997,3.154001 -0.827,5.313005c-0.335999,2.160995 -0.698997,4.608994 -1.089001,7.346001c-0.389999,2.737999 -0.091999,1.591999 -0.427998,4.475998c-0.336002,2.885002 -0.612,5.736 -0.827,8.554001c-0.215,2.818001 -0.322002,5.408001 -0.322002,7.769001c0,2.414997 0.087002,4.595989 0.262001,6.540989c0.174999,1.945999 0.470001,3.603004 0.887001,4.971001c0.417,1.369003 0.960999,2.416 1.632999,3.139999c0.672001,0.724998 1.506001,1.087006 2.5,1.087006c1.721001,0 3.286999,-0.671005 4.697998,-2.013c1.412003,-1.340996 2.702,-3.132996 3.872002,-5.374001c1.168999,-2.240005 2.217999,-4.835995 3.145,-7.787994c0.926994,-2.952 1.746994,-6.038002 2.459999,-9.258995c0.711998,-3.220001 1.330994,-6.467003 1.854996,-9.741005c0.524002,-3.274002 0.960999,-6.366001 1.309998,-9.277996c0.349007,-2.912003 0.625,-5.528006 0.827003,-7.849007c0.202003,-2.320999 -0.489998,-5.777 -0.800003,-8.786999c-0.143997,-1.363 0.042,-3.376 0.459,-4.208c0.417,-0.830997 0.948006,-1.474998 1.593002,-1.931997c0.645004,-0.455999 1.376999,-0.757999 2.197998,-0.905003c0.819,-0.148 1.659004,-0.222 2.520004,-0.222c0.671997,0 1.283997,0.074 1.834999,0.222c0.551003,0.147 1.028,0.402 1.431,0.764c0.403999,0.363 0.711998,0.846002 0.928001,1.449c0.214996,0.604 0.514,2.077 0.514,3.016c0,2.602999 1.019997,6.735998 0.814995,11.970999c-0.119995,3.035999 -0.752998,6.045002 -1.25,9.077c-0.497993,3.032997 -1.035995,5.984997 -1.612999,8.855999c-0.578995,2.871998 -1.327995,5.045002 -1.878998,7.340004c-0.347,1.446999 -1.314003,4.519001 -1.650002,6.102001c-0.336998,1.584 -1.177002,4.212994 -1.321999,4.616993c-0.927002,2.588997 -0.295998,2.558998 0,3.296997c0.295998,0.737999 1.485001,0.835999 1.983002,1.319c0.262001,0.254997 0.864998,0.042999 1.476997,-0.181999c-0.050995,-0.593002 -0.084999,-1.191002 -0.084999,-1.800003c0,-1.379986 0.135002,-2.839989 0.405998,-4.380989c0.270004,-1.538998 0.681999,-3.049 1.235001,-4.528c0.553001,-1.478004 1.247002,-2.888 2.083,-4.231998c0.835999,-1.342999 1.813004,-2.524998 2.931999,-3.548004c1.118004,-1.021996 2.372002,-1.835999 3.761002,-2.439999c1.388,-0.603004 2.931,-0.904999 4.626999,-0.904999c1.376999,0 2.654999,0.221001 3.834999,0.665001c1.18,0.444 2.206001,1.065994 3.079002,1.866997c0.872002,0.801006 1.554001,1.768005 2.045998,2.901001c0.492004,1.133999 0.737999,2.402996 0.737999,3.806995c0,1.529003 -0.375,3.056 -1.125,4.584003c-0.75,1.528004 -1.787994,2.970001 -3.115997,4.323997c-1.326996,1.355995 -2.906998,2.563995 -4.737999,3.622993c-1.741997,1.008003 -3.626999,1.797005 -5.647003,2.381004c-0.022995,0.153 -0.052994,0.306999 -0.098,0.459999c0.297005,0.503998 0.589005,0.940002 0.878006,1.298996c0.355995,0.443001 0.718994,0.789001 1.087997,1.035004c0.368996,0.246002 0.755997,0.418999 1.160995,0.516998c0.406006,0.098999 0.842003,0.148003 1.309006,0.148003c1.474998,0 3.029999,-0.295998 4.665001,-0.887001c1.633995,-0.592003 3.225998,-1.331001 4.774994,-2.218002c0.106003,-0.060997 0.215004,-0.134995 0.324005,-0.217995c-0.098999,-0.813004 -0.151001,-1.638 -0.151001,-2.476006c0,-1.763 0.225998,-3.546997 0.678001,-5.350998c0.451996,-1.804001 1.109001,-3.554001 1.971001,-5.248001c0.862,-1.693993 1.909996,-3.290997 3.141998,-4.792995c1.232002,-1.500999 2.627998,-2.837002 4.188995,-4.007999c1.560005,-1.169998 3.258003,-2.140999 5.092003,-2.912998c1.834,-0.771 3.792,-1.253002 5.873001,-1.446003c0.082001,-3.525993 0.397003,-7.009995 0.945,-10.453991c0.546997,-3.443008 1.273003,-6.721004 2.176003,-9.834009c0.903999,-3.113001 1.964996,-5.992001 3.182999,-8.635996c1.218002,-2.644 2.552994,-4.931005 4.003998,-6.859001c1.451004,-1.928 2.998001,-3.436001 4.641006,-4.525001c1.64299,-1.087 3.339996,-1.632 5.092987,-1.632c1.286011,0 2.381012,0.338 3.285004,1.013c0.904007,0.675 1.636002,1.57 2.197006,2.685c0.561005,1.116 0.964996,2.411 1.21199,3.883996c0.246002,1.474004 0.369003,2.996 0.369003,4.566004c0,0.964996 -0.041,1.957 -0.123001,2.974998c-0.149994,1.641002 -0.366989,3.235997 -0.625,4.799996c0.733002,-2.23 1.553009,-4.330996 2.460999,-6.301c1.218002,-2.645 2.553009,-4.931002 4.004013,-6.859001c1.450989,-1.928 2.997986,-3.436001 4.640991,-4.525001c1.643005,-1.088 3.339996,-1.631999 5.091995,-1.631999c1.287003,0 2.382004,0.338 3.286011,1.011999c0.903,0.676 1.636002,1.57 2.196991,2.686c0.561005,1.116 0.965012,2.411 1.212006,3.884003c0.246002,1.473996 0.369003,2.995996 0.369003,4.565996c0,0.964003 -0.041,1.955999 -0.123001,2.974998c-0.356003,3.884005 -1.013,7.555 -1.971008,11.012001c-0.959,3.457003 -2.080994,6.823999 -3.367996,10.101999c-1.287003,3.279003 -2.682999,6.529003 -4.188995,9.752003c-1.505997,3.223003 -2.971008,6.570004 -4.393997,10.040001c-0.138,0.386997 -0.274002,0.855003 -0.411011,1.405003c-0.136993,0.551994 -0.266998,1.151001 -0.389999,1.797997c-0.123001,0.646999 -0.225998,1.308002 -0.307999,1.982998c-0.082001,0.674999 -0.123001,1.329002 -0.123001,1.963001c0,0.799004 0.046997,1.556007 0.143005,2.272003c0.095993,0.717003 0.253006,1.357002 0.472992,1.921997c0.219009,0.565002 0.513,1.012001 0.883011,1.343002c0.369003,0.330002 0.828003,0.495003 1.375992,0.495003c0.518997,0 1.087997,-0.103004 1.70401,-0.308998c0.615997,-0.207001 1.265991,-0.489006 1.950989,-0.848007c0.684006,-0.356995 1.375,-0.764 2.074005,-1.217995c0.244003,-0.160004 0.473007,-0.325005 0.712006,-0.486c0.026001,-0.157005 0.044998,-0.305 0.072998,-0.466003c0.356003,-2.056999 0.792999,-4.188004 1.30899,-6.394001c0.516006,-2.205002 1.063004,-4.403996 1.641006,-6.598c0.576996,-2.193001 1.087997,-4.214001 1.529999,-6.062c0.171997,-0.639996 0.516006,-1.188992 1.033005,-1.644997c0.515991,-0.455002 1.098999,-0.825001 1.750992,-1.109001c0.651001,-0.283001 1.327011,-0.492001 2.028,-0.627998c0.701004,-0.135002 1.333008,-0.203003 1.899002,-0.203003c1.031998,0 1.733002,0.191002 2.102005,0.573002c0.369003,0.382 0.552994,0.893005 0.552994,1.534c0,0.542 -0.123001,1.324001 -0.369003,2.347c-0.245987,1.022999 -0.552994,2.181 -0.921997,3.473999c-0.367996,1.293999 -0.761993,2.686001 -1.179993,4.177002c-0.417999,1.490997 -0.811005,2.981998 -1.180008,4.473c-0.367996,1.490997 -0.675995,2.944 -0.92099,4.361c-0.246002,1.417 -0.369003,2.693001 -0.369003,3.825996c0,1.109001 0.123001,1.990005 0.369003,2.643005c0.244995,0.653 0.748993,0.978996 1.511002,0.978996c0.778992,0 1.632996,-0.237999 2.563995,-0.714996c0.002991,-1.607002 0.099991,-3.455002 0.293991,-5.550003c0.195999,-2.130997 0.442001,-4.299999 0.737,-6.505001c0.295013,-2.205997 0.627014,-4.330997 0.996002,-6.376999c0.368011,-2.044998 0.723999,-3.793999 1.069,-5.248001c0.270004,-1.132999 0.792999,-2.081997 1.567001,-2.845997c0.774002,-0.764004 1.824997,-1.146004 3.153,-1.146004c1.326996,0 2.249008,0.406002 2.764999,1.219002c0.516006,0.813999 0.774002,1.897999 0.774002,3.252998c0,0.370003 -0.035995,0.869003 -0.110001,1.497002c-0.074005,0.629002 -0.166,1.319 -0.276993,2.07c-0.110001,0.751999 -0.227005,1.528 -0.350006,2.328999c-0.123001,0.801006 -0.240005,1.540001 -0.350006,2.218002c-0.110992,0.677998 -0.202988,1.269001 -0.276993,1.773998c-0.074005,0.505001 -0.110001,0.844002 -0.110001,1.016003l0.737,0c0.147995,-0.271 0.380997,-0.708 0.701004,-1.312c0.319,-0.603001 0.686996,-1.299 1.106003,-2.087997c0.416992,-0.789001 0.865997,-1.620003 1.345993,-2.495003c0.479004,-0.875 0.927002,-1.712997 1.345001,-2.514c0.417999,-0.799995 0.798996,-1.509003 1.143997,-2.125c0.344009,-0.615997 0.602005,-1.071999 0.774002,-1.368c0.785995,-1.330002 1.682999,-2.242001 2.692001,-2.735001c1.007004,-0.493 2.126007,-0.739002 3.354996,-0.739002c1.229004,0 2.206009,0.517002 2.931,1.552002c0.725006,1.035 1.087997,2.464005 1.087997,4.287998c0,0.271 -0.054993,0.727001 -0.166,1.367004c-0.109985,0.641998 -0.251999,1.405003 -0.423996,2.292c-0.171997,0.887001 -0.362991,1.861 -0.570999,2.920002c-0.209,1.059998 -0.399994,2.144001 -0.571991,3.252995c-0.172012,1.109001 -0.313004,2.206001 -0.424011,3.290001c-0.110992,1.084003 -0.166,2.081997 -0.166,2.993999c0,1.528 0.190002,2.785004 0.572006,3.770004c0.380997,0.985992 0.977005,1.477997 1.787994,1.477997c0.369003,0 0.792999,-0.110001 1.272003,-0.332001c0.479004,-0.222 0.996002,-0.511002 1.548996,-0.869003c0.507004,-0.326996 1.025009,-0.706993 1.553009,-1.127998c-0.906998,-1.523994 -1.665009,-3.173996 -2.266998,-4.956001c-1.020004,-3.018993 -1.529999,-6.191994 -1.529999,-9.517994c0,-4.362 0.521988,-8.531998 1.566986,-12.512001c1.044006,-3.98 2.489014,-7.675999 4.332001,-11.089003c1.844009,-3.413 4.020004,-6.505999 6.527008,-9.277998c2.507004,-2.771999 5.210999,-5.137999 8.112,-7.096996c2.899994,-1.959002 5.942001,-3.474 9.125992,-4.546c3.183014,-1.072 6.373001,-1.608 9.568008,-1.608c1.966995,0 3.791992,0.296 5.475998,0.887c1.682999,0.591 3.145996,1.516 4.388016,2.772c1.240997,1.257 2.212006,2.846 2.912994,4.767995c0.700012,1.923 1.050995,4.214006 1.050995,6.875999c0,1.035 -0.123993,2.064001 -0.368988,3.086c-0.246002,1.023001 -0.652008,2.051001 -1.21701,3.086l0,0.000002zm-169.425003,31.682001c1.043999,-0.456001 2.014999,-1.041 2.912994,-1.756001c0.897003,-0.714001 1.653,-1.490997 2.267006,-2.328999c0.614998,-0.837002 0.921997,-1.650002 0.921997,-2.438999c0,-1.109001 -0.203003,-2.021 -0.608002,-2.736c-0.405998,-0.714001 -0.903999,-1.071003 -1.493996,-1.071003c-1.056999,0 -1.960007,0.197002 -2.710007,0.591003c-0.75,0.393997 -1.376999,0.905998 -1.879997,1.533997c-0.503998,0.628002 -0.909996,1.343002 -1.216995,2.144001c-0.308006,0.801003 -0.541,1.608002 -0.701004,2.421001c-0.159996,0.813 -0.264,1.601994 -0.312996,2.364998c-0.050003,0.765003 -0.074005,1.418003 -0.074005,1.960003c0.885002,0 1.849998,-0.228001 2.895004,-0.684002zm33.731995,-1.096001c-0.055,-0.839001 -0.096001,-1.775997 -0.123001,-2.808998c-0.028,-1.033001 -0.054993,-2.100002 -0.081993,-3.202999c-0.028,-1.101002 -0.048004,-2.107002 -0.062004,-3.016003c-0.014,-0.909 -0.034996,-1.653 -0.061996,-2.230999c-0.027,-0.578999 -0.055,-0.854 -0.082001,-0.827c-1.806999,0.882 -3.415001,2.046001 -4.825005,3.492001c-1.410995,1.445999 -2.587997,3.009998 -3.531998,4.689999c-0.945,1.68 -1.663002,3.374001 -2.155998,5.082001c-0.493004,1.708 -0.738998,3.250996 -0.738998,4.627995c0,0.551003 0.060997,1.102005 0.183998,1.653c0.124001,0.551003 0.348999,1.047005 0.678001,1.487c0.328995,0.441002 0.793999,0.799004 1.395996,1.074005c0.602005,0.275993 1.383003,0.413994 2.341003,0.413994c0.492996,0 0.978996,-0.124001 1.458,-0.371994c0.478996,-0.248001 0.937996,-0.572006 1.375999,-0.971001c0.437996,-0.399002 0.854996,-0.854004 1.252998,-1.364006c0.395996,-0.508995 0.759003,-1.038994 1.087997,-1.590996c0.765999,-1.265999 1.464005,-2.698997 2.094002,-4.296997c-0.082001,-0.384998 -0.150002,-0.998001 -0.205002,-1.839001zm11.397003,5.269001c0.095001,0.715996 0.251999,1.356995 0.472,1.920998c0.218994,0.564995 0.513,1.012001 0.882996,1.343002c0.369003,0.330994 0.828003,0.495995 1.376007,0.495995c0.518997,0 1.087997,-0.102997 1.703995,-0.309998c0.615997,-0.207001 1.266006,-0.488998 1.951004,-0.847c0.68399,-0.358002 1.375992,-0.764999 2.074005,-1.219002c0.459991,-0.299995 0.897995,-0.607002 1.339996,-0.913002c0.544998,-1.006996 1.052994,-2.104996 1.522003,-3.294994c-0.082001,-0.385998 -0.150009,-0.997997 -0.205002,-1.838997c-0.055008,-0.84 -0.096008,-1.777 -0.123001,-2.810001c-0.028,-1.033001 -0.055008,-2.100002 -0.082001,-3.202c-0.028,-1.101002 -0.048004,-2.107002 -0.061996,-3.015999c-0.014008,-0.909 -0.035004,-1.653004 -0.062012,-2.232002c-0.026993,-0.577999 -0.054993,-0.853001 -0.082001,-0.826c-1.806992,0.882 -3.414993,2.045002 -4.824997,3.492001c-1.410995,1.445999 -2.587997,3.008999 -3.531998,4.688999c-0.945007,1.681 -1.662994,3.375 -2.156006,5.083c-0.128998,0.447002 -0.238998,0.881001 -0.334,1.305c0.003006,0.764 0.048004,1.491997 0.141006,2.18zm7.350998,-54.997002c-0.261002,-0.578 -0.636993,-0.868 -1.130005,-0.868c-0.875992,0 -1.669998,0.558 -2.381989,1.674c-0.712006,1.116 -1.341003,2.541 -1.889008,4.276999c-0.548004,1.734999 -1.026001,3.65 -1.436996,5.743c-0.410995,2.094 -0.753006,4.118 -1.027008,6.073999c-0.273987,1.955999 -0.492996,3.719 -0.656998,5.289001c-0.164001,1.570004 -0.274002,2.685997 -0.328003,3.347c-0.109985,1.349998 -0.19899,2.650997 -0.266998,3.903999c-0.069,1.253998 -0.116989,2.396999 -0.143997,3.43c-0.028,1.032997 -0.041,1.936001 -0.041,2.705997c0,0.772003 0,1.364002 0,1.776997l0,0.357002c0.013,-0.012001 0.025009,-0.023003 0.03801,-0.035c1.544998,-3.550003 2.970993,-7.087006 4.273987,-10.610004c0.547012,-1.514996 1.102005,-3.105999 1.66301,-4.773003c0.561005,-1.665998 1.07399,-3.34 1.539993,-5.019999c0.466003,-1.679998 0.869003,-3.332998 1.212006,-4.959002c0.341995,-1.625 0.580994,-3.167 0.718994,-4.626999c0.164001,-1.927999 0.246002,-3.457001 0.246002,-4.586999c0,-1.487 -0.130005,-2.52 -0.389999,-3.099l0,0.000006l0,0.000002l0,0.000002zm2.320007,25.783997c-0.927002,2.361 -1.931,4.702003 -2.971008,7.034c1.229996,-0.360001 2.511002,-0.603001 3.841995,-0.726997c0.082001,-3.525002 0.397003,-7.010002 0.945007,-10.452999c0.102005,-0.641998 0.216003,-1.273006 0.330994,-1.903008c-0.65799,2.048004 -1.368988,4.067005 -2.146988,6.049004zm15.203995,1.886002c0.546997,-1.513996 1.102005,-3.105 1.662994,-4.771996c0.561005,-1.667 1.074005,-3.340002 1.540009,-5.021008c0.466003,-1.678999 0.869003,-3.332001 1.21199,-4.958c0.34201,-1.625 0.581009,-3.167002 0.719009,-4.627996c0.164001,-1.928001 0.246002,-3.455998 0.246002,-4.585999c0,-1.488 -0.130005,-2.521 -0.389999,-3.099c-0.261002,-0.579 -0.637009,-0.868 -1.130005,-0.868c-0.876007,0 -1.669998,0.558 -2.382004,1.674c-0.71199,1.115 -1.341003,2.541 -1.888992,4.276001c-0.548004,1.735996 -1.026001,3.65 -1.437012,5.743998c-0.410995,2.093 -0.753998,4.118 -1.026993,6.074001c-0.274002,1.955997 -0.492996,3.718 -0.656998,5.288004c-0.164001,1.570995 -0.274002,2.686001 -0.32901,3.346996c-0.108994,1.349998 -0.197998,2.652 -0.265991,3.905003c-0.069,1.254002 -0.117004,2.396996 -0.143997,3.429996c-0.028,1.033005 -0.041,1.935001 -0.041,2.706001c0,0.771999 0,1.363998 0,1.777l0,0.412994c1.559998,-3.580997 2.998001,-7.147999 4.311996,-10.702l0,0.000004zm25.264999,-1.112c-0.589996,0.615997 -1.334,1.114998 -2.231003,1.497002c-0.897003,0.382 -1.972,0.571999 -3.225998,0.571999c-2.162994,0 -3.761002,-0.511002 -4.792999,-1.533997c-1.033005,-1.021999 -1.548996,-2.383999 -1.548996,-4.084003c0,-0.567001 0.123001,-1.207001 0.369003,-1.922001c0.244995,-0.714001 0.644989,-1.386002 1.197998,-2.014996c0.552994,-0.628 1.291,-1.157001 2.21199,-1.589005c0.921997,-0.431 2.070999,-0.646996 3.447998,-0.646996c0.860001,0 1.671005,0.098999 2.434006,0.296c0.761002,0.197002 1.425003,0.499002 1.990997,0.906c0.565002,0.406 1.014008,0.941999 1.346008,1.607c0.330994,0.665997 0.496994,1.455 0.496994,2.365999c0,0.837997 -0.134995,1.651001 -0.404999,2.439999c-0.270996,0.788998 -0.701004,1.491001 -1.291,2.107002l0,-0.000004zm-117.774002,-28.236c-0.253998,0.240005 -0.518997,0.472 -0.794998,0.697001c-0.276001,0.224998 -0.545998,0.436996 -0.810997,0.636c-0.625999,0.472 -1.299,0.93 -2.02,1.372c-0.139999,0.79 -0.305,1.558002 -0.495998,2.306999c-0.192001,0.749002 -0.417999,1.449 -0.679001,2.101998c-0.260998,0.653002 -0.558998,1.252003 -0.894001,1.798c-0.334999,0.546 -0.713997,1.014 -1.136997,1.405001c-0.423,0.391001 -0.896,0.695002 -1.417999,0.913c-0.523003,0.216999 -1.099995,0.326 -1.733002,0.326c-0.25,0 -0.521,-0.026001 -0.811001,-0.077c-0.291,-0.052 -0.558998,-0.155005 -0.806,-0.310001c-0.245998,-0.154999 -0.450001,-0.375999 -0.612,-0.664001c-0.161999,-0.287001 -0.243,-0.671 -0.243,-1.15c0,-0.332001 0.084,-0.707001 0.254002,-1.123001c0.168999,-0.417 0.400997,-0.855999 0.695,-1.316998c0.293999,-0.460999 0.643997,-0.940001 1.048,-1.438001c0.404999,-0.498 0.844997,-0.993995 1.318996,-1.488c0.475002,-0.494 0.972,-0.981 1.490002,-1.461c0.519001,-0.479 1.042999,-0.936 1.573002,-1.372l0.297997,-1.029c-0.396999,0.355 -0.810997,0.64 -1.241997,0.858004c-0.43,0.217999 -0.848,0.325996 -1.252003,0.325996c-0.352997,0 -0.696999,-0.072 -1.031998,-0.214995c-0.335003,-0.144001 -0.631001,-0.351005 -0.889,-0.620004c-0.257,-0.269001 -0.463001,-0.596997 -0.618,-0.985001c-0.034,-0.085 -0.049999,-0.182 -0.076,-0.273c-0.221001,0.181 -0.443001,0.36 -0.662003,0.549997c-0.32,0.276999 -0.658997,0.526999 -1.014999,0.752003c-0.356998,0.224998 -0.749001,0.41 -1.175999,0.552999c-0.427002,0.144 -0.909,0.216002 -1.445999,0.216002c-0.264999,0 -0.487,-0.086 -0.667,-0.26c-0.181,-0.173 -0.326,-0.415 -0.436001,-0.724c-0.111,-0.31 -0.189999,-0.675 -0.237999,-1.095999c-0.048,-0.420001 -0.071003,-0.877001 -0.071003,-1.372004c0,-0.464 0.016003,-0.957 0.049,-1.477c0.033001,-0.52 0.079002,-1.045 0.138,-1.576l-0.164997,0l-2.241001,5.720005c-0.191002,0.308995 -0.404999,0.517998 -0.639999,0.624995c-0.236,0.106999 -0.507999,0.160003 -0.817001,0.160003c-0.235001,0 -0.423,-0.064 -0.563,-0.192997c-0.139,-0.129005 -0.248001,-0.295004 -0.325001,-0.498003c-0.077,-0.203 -0.128998,-0.426003 -0.154999,-0.67c-0.026001,-0.243 -0.038002,-0.479 -0.038002,-0.708c0,-0.096 0.007,-0.232 0.022003,-0.409c0.014,-0.177 0.036999,-0.38 0.065998,-0.609c0.028999,-0.228 0.062,-0.470001 0.098999,-0.724c0.037003,-0.255 0.074001,-0.507 0.111,-0.758c0.081001,-0.590001 0.18,-1.224 0.298,-1.903001l-0.166,0c-0.087997,0.111 -0.188999,0.276 -0.302998,0.498c-0.115005,0.221 -0.275005,0.546 -0.480003,0.973c-0.207001,0.428 -0.470001,0.983001 -0.790001,1.665c-0.32,0.683001 -0.734001,1.537001 -1.241001,2.562c-0.146996,0.302 -0.319,0.507 -0.512997,0.613997c-0.195007,0.106999 -0.410999,0.160002 -0.646,0.160002c-0.301998,0 -0.544998,-0.063999 -0.728004,-0.193002c-0.183998,-0.129001 -0.326,-0.302999 -0.424995,-0.52c-0.099998,-0.218 -0.166,-0.465 -0.198997,-0.742002c-0.033001,-0.276001 -0.050003,-0.561997 -0.050003,-0.856998c0,-0.302 0.019001,-0.66 0.055,-1.072999c0.037003,-0.413 0.084999,-0.848001 0.144001,-1.306c0.058998,-0.457001 0.126999,-0.924001 0.203999,-1.399001c0.077,-0.476 0.158001,-0.932 0.243,-1.367c0.084,-0.435 0.171001,-0.833 0.259003,-1.194999c0.088997,-0.361 0.168999,-0.656 0.243,-0.885c0.073997,-0.236 0.143997,-0.424 0.209999,-0.564c0.065998,-0.14 0.140999,-0.249 0.225998,-0.326c0.085003,-0.078001 0.186001,-0.129001 0.304001,-0.155c0.117001,-0.026 0.268002,-0.039 0.452,-0.039c0.280003,0 0.498001,0.009 0.657001,0.028c0.158001,0.018 0.276001,0.062 0.353001,0.132c0.077,0.071 0.122997,0.172 0.138,0.305c0.014999,0.132 0.021999,0.313 0.021999,0.542c0,0.125 -0.006004,0.269 -0.017002,0.431c-0.010998,0.163 -0.027,0.336 -0.049,0.519999c-0.021999,0.185 -0.046001,0.375 -0.072002,0.57c-0.026001,0.196 -0.052998,0.386001 -0.082996,0.57c-0.066002,0.435 -0.136005,0.885 -0.209003,1.35l0.120998,0.132c0.014999,-0.022 0.094002,-0.162 0.237,-0.42c0.144001,-0.258 0.320007,-0.568 0.530006,-0.929c0.209999,-0.362 0.435997,-0.74 0.678997,-1.133999c0.243,-0.395 0.474003,-0.743001 0.695004,-1.046c0.212997,-0.302001 0.440002,-0.553001 0.678997,-0.752c0.239002,-0.199 0.524002,-0.299 0.855003,-0.299c0.309002,0 0.574001,0.09 0.795002,0.271c0.221001,0.181 0.331001,0.437 0.331001,0.768999c0,0.288 -0.019001,0.561 -0.055,0.819001c-0.037006,0.257999 -0.083,0.509 -0.137997,0.751999c-0.055,0.243 -0.112003,0.481 -0.171001,0.714c-0.058998,0.232 -0.113998,0.47 -0.166,0.713c-0.036999,0.17 -0.058998,0.277 -0.065998,0.321c-0.007,0.044 -0.011002,0.074 -0.011002,0.089l0.121002,0.132c0.014996,-0.022 0.099995,-0.16 0.253994,-0.415c0.155003,-0.254 0.344006,-0.561999 0.569004,-0.923c0.223999,-0.362 0.463001,-0.742 0.716995,-1.14c0.254002,-0.398 0.490997,-0.748 0.712002,-1.051c0.212997,-0.295 0.425999,-0.544 0.639996,-0.747c0.213001,-0.203 0.474998,-0.304 0.784,-0.304c0.345001,0 0.638,0.09 0.876999,0.271c0.239002,0.181 0.359001,0.437 0.359001,0.769c0,0.509 -0.026001,0.992 -0.077999,1.449c-0.051003,0.458 -0.110001,0.908 -0.176003,1.35c-0.065998,0.443 -0.125,0.891 -0.176998,1.344c-0.050999,0.454 -0.077,0.935 -0.077,1.444c0,0.398 0.050999,0.723 0.153999,0.974c0.103001,0.251 0.228001,0.375999 0.375996,0.375999c0.153999,0 0.316002,-0.033 0.485004,-0.099999c0.169998,-0.066 0.342999,-0.151 0.519001,-0.254c0.176994,-0.103 0.348999,-0.223001 0.518997,-0.36c0.169003,-0.136 0.330997,-0.278 0.485001,-0.426c0.295998,-0.278 0.589001,-0.594 0.880001,-0.932c0.005001,-0.053 0.007,-0.111 0.012997,-0.163c0.063004,-0.538 0.153,-1.051 0.271,-1.538c0.117004,-0.487 0.264999,-0.957 0.440998,-1.41c0.177002,-0.454 0.379005,-0.913 0.607002,-1.378c0.168999,-0.332 0.411999,-0.584 0.729,-0.758c0.315998,-0.173 0.625,-0.26 0.926998,-0.26c0.257,0 0.478001,0.065 0.662003,0.194c0.183998,0.129 0.275997,0.33 0.275997,0.603c0,0.081 -0.008999,0.17 -0.028,0.265c-0.017998,0.096 -0.049,0.2 -0.093998,0.31c-0.132,0.34 -0.263,0.74 -0.391003,1.201c-0.128998,0.461 -0.243,0.933 -0.342999,1.416c-0.098999,0.483 -0.178001,0.957 -0.237,1.421c-0.059002,0.465 -0.088001,0.874 -0.088001,1.229c0,0.184 0.013,0.363 0.039001,0.536c0.024998,0.174 0.070999,0.328 0.137001,0.465c0.066998,0.136 0.154999,0.247 0.264999,0.332c0.111,0.085 0.25,0.127 0.419998,0.127c0.271996,0 0.519001,-0.118 0.738995,-0.354c0.221004,-0.236 0.412006,-0.52 0.573997,-0.852c0.162003,-0.332 0.293003,-0.675 0.392002,-1.029001c0.098999,-0.354 0.163998,-0.649 0.193001,-0.884999l0.772999,-3.253001c0.058002,-0.25 0.162998,-0.474 0.313999,-0.669c0.151001,-0.195 0.324001,-0.36 0.519001,-0.492c0.195,-0.133 0.398998,-0.233 0.612003,-0.299c0.214001,-0.067 0.415997,-0.1 0.608002,-0.1c0.226994,0 0.418995,0.05 0.572994,0.15c0.154999,0.099 0.232002,0.256 0.232002,0.47c0,0.066 -0.011002,0.144 -0.033005,0.232c-0.043999,0.192 -0.098999,0.454 -0.165001,0.786c-0.067001,0.332 -0.137993,0.708 -0.215996,1.128c-0.077003,0.421 -0.155998,0.865 -0.237,1.333c-0.081001,0.469 -0.158005,0.935 -0.232002,1.399999c-0.183998,1.092 -0.370998,2.263999 -0.563004,3.518001c0.221004,-0.124995 0.459999,-0.280001 0.718002,-0.464001c0.256996,-0.184999 0.543991,-0.431999 0.860985,-0.742c0.316017,-0.31 0.669006,-0.699 1.059013,-1.167c0.389992,-0.468 0.827988,-1.053 1.313988,-1.754l0.528999,2.457c-0.131996,0.228002 -0.303001,0.462998 -0.512993,0.702002c-0.209999,0.24 -0.440994,0.48 -0.695007,0.719l0.000015,0.000002l0,0.000002l0.000008,0.000001zm-7.328995,4.807c-0.298,0.266 -0.588001,0.552 -0.871998,0.858c-0.283001,0.306001 -0.551003,0.621 -0.805,0.946c-0.254002,0.323999 -0.477001,0.636 -0.668003,0.934999c-0.190998,0.298 -0.341999,0.577 -0.452,0.834999c-0.111,0.258001 -0.166,0.472 -0.166,0.642c0,0.273001 0.147003,0.408997 0.441002,0.408997c0.308998,0 0.602001,-0.089996 0.877998,-0.271c0.276001,-0.181 0.530003,-0.419001 0.761002,-0.714001c0.231998,-0.295 0.444,-0.629999 0.634998,-1.006001c0.191002,-0.377001 0.360001,-0.762001 0.508003,-1.156998c0.146999,-0.394001 0.271999,-0.780004 0.375,-1.156001c0.102997,-0.376 0.183998,-0.712 0.243,-1.006001c-0.287003,0.191 -0.580002,0.419999 -0.878002,0.684999l0,0.000003l0,0.000003l0,0.000001z" class="svg-logo" id="svg-logo" fill="black"/>
   </g>
  </g>
 </g>
</svg>
